<svg width="100" height="100" viewBox="0 0 100 100" fill="none" xmlns="http://www.w3.org/2000/svg">
<path d="M46.3455 94.5636C46.3455 94.6727 46.3455 94.8909 46.3455 95H53.6545C53.6545 94.8909 53.6545 94.6727 53.6545 94.5636C53.6545 71.9818 71.9818 53.6545 94.5636 53.6545C94.6727 53.6545 94.8909 53.6545 95 53.6545V46.3455C94.8909 46.3455 94.6727 46.3455 94.5636 46.3455C71.9818 46.3455 53.6545 28.0182 53.6545 5.43636C53.6545 5.32727 53.6545 5.10909 53.6545 5H46.3455C46.3455 5.10909 46.3455 5.32727 46.3455 5.43636C46.3455 28.0182 28.0182 46.3455 5.43636 46.3455C5.32727 46.3455 5.10909 46.3455 5 46.3455V53.6545C5.10909 53.6545 5.32727 53.6545 5.43636 53.6545C28.0182 53.6545 46.3455 71.9818 46.3455 94.5636Z" fill="#F4502A"/>
</svg>
